<svg id="visual" viewBox="0 0 2560 1440" width="2560" height="1440" xmlns="http://www.w3.org/2000/svg" xmlns:xlink="http://www.w3.org/1999/xlink" version="1.1"><rect x="0" y="0" width="2560" height="1440" fill="#140021"></rect><path d="M1038 0L840 0L840 206L1000 206L1000 411L999 411L999 617L964 617L964 823L999 823L999 1029L856 1029L856 1234L894 1234L894 1440L0 1440L0 1234L0 1234L0 1029L0 1029L0 823L0 823L0 617L0 617L0 411L0 411L0 206L0 206L0 0L0 0Z" fill="#000a3a"></path><path d="M709 0L725 0L725 206L891 206L891 411L711 411L711 617L742 617L742 823L808 823L808 1029L961 1029L961 1234L773 1234L773 1440L0 1440L0 1234L0 1234L0 1029L0 1029L0 823L0 823L0 617L0 617L0 411L0 411L0 206L0 206L0 0L0 0Z" fill="#000937"></path><path d="M634 0L730 0L730 206L604 206L604 411L700 411L700 617L701 617L701 823L709 823L709 1029L713 1029L713 1234L772 1234L772 1440L0 1440L0 1234L0 1234L0 1029L0 1029L0 823L0 823L0 617L0 617L0 411L0 411L0 206L0 206L0 0L0 0Z" fill="#010933"></path><path d="M585 0L648 0L648 206L675 206L675 411L674 411L674 617L521 617L521 823L634 823L634 1029L578 1029L578 1234L525 1234L525 1440L0 1440L0 1234L0 1234L0 1029L0 1029L0 823L0 823L0 617L0 617L0 411L0 411L0 206L0 206L0 0L0 0Z" fill="#010830"></path><path d="M398 0L487 0L487 206L557 206L557 411L435 411L435 617L525 617L525 823L485 823L485 1029L562 1029L562 1234L489 1234L489 1440L0 1440L0 1234L0 1234L0 1029L0 1029L0 823L0 823L0 617L0 617L0 411L0 411L0 206L0 206L0 0L0 0Z" fill="#01082c"></path><path d="M342 0L449 0L449 206L367 206L367 411L276 411L276 617L383 617L383 823L465 823L465 1029L442 1029L442 1234L315 1234L315 1440L0 1440L0 1234L0 1234L0 1029L0 1029L0 823L0 823L0 617L0 617L0 411L0 411L0 206L0 206L0 0L0 0Z" fill="#010729"></path><path d="M194 0L333 0L333 206L293 206L293 411L188 411L188 617L340 617L340 823L311 823L311 1029L173 1029L173 1234L259 1234L259 1440L0 1440L0 1234L0 1234L0 1029L0 1029L0 823L0 823L0 617L0 617L0 411L0 411L0 206L0 206L0 0L0 0Z" fill="#010625"></path><path d="M116 0L191 0L191 206L185 206L185 411L90 411L90 617L178 617L178 823L158 823L158 1029L96 1029L96 1234L189 1234L189 1440L0 1440L0 1234L0 1234L0 1029L0 1029L0 823L0 823L0 617L0 617L0 411L0 411L0 206L0 206L0 0L0 0Z" fill="#000522"></path></svg>